# xmcd
#
# Track frame offsets:
#	150
#	17744
#	42526
#	59928
#	79422
#	93386
#	109328
#	123139
#	142583
#	159550
#	178071
#	198179
#	219057
#	234610
#	244438
#	261244
#	276663
#	298603
#
# Disc length: 4161 seconds
#
# Revision: 0
# Processed by: cddbd v1.5.2PL0 Copyright (c) Steve Scherf et al.
# Submitted via: EasyCDDAExtractor 12.1.0.1
#
DISCID=13103f12
DTITLE=VARIOS - BALADAS EN CASTELLANO
DYEAR=1900
DGENRE=
TTITLE0=VIENTOS DE CAMBIO
TTITLE1=ECLIPSE TOTAL DEL CORAZON
TTITLE2=HERIDAS DE AMOR
TTITLE3=UN DIA SIN TI
TTITLE4=SIN TI
TTITLE5=POLVO EN EL VIENTO
TTITLE6=LA DAMA DE ROJO
TTITLE7=COMO YO, NADIE TE HA AMADO
TTITLE8=SOMBRAS DE AMOR
TTITLE9=TODO LO QUE HAGO LO HAGO POR TI
TTITLE10=SIEMPRE TE AMARE
TTITLE11=NO SE SI ES AMOR
TTITLE12=NADA CAMBIARÁ MI AMOR POR TI
TTITLE13=YESTERDAY
TTITLE14=HEY TU
TTITLE15=DEVOTAMENTE TUYA
TTITLE16=MI CORAZON CONTINUARÁ
TTITLE17=HABLA EL CORAZON
EXTD=
EXTT0=
EXTT1=
EXTT2=
EXTT3=
EXTT4=
EXTT5=
EXTT6=
EXTT7=
EXTT8=
EXTT9=
EXTT10=
EXTT11=
EXTT12=
EXTT13=
EXTT14=
EXTT15=
EXTT16=
EXTT17=
PLAYORDER=
